<svg id="Qr-Code--Streamline-Openmoji" viewBox="0 0 32 32" xmlns="http://www.w3.org/2000/svg" height="32" width="32">
  <desc>
    Qr Code Streamline Emoji: https://streamlinehq.com
  </desc>
  <g id="line-supplement">
    <path fill="#000000" d="M5.964799999999999 5.964799999999999h2.5088v2.5088h-2.5088Z" stroke-width="0.4444"></path>
    <path fill="#000000" d="M5.964799999999999 23.5264h2.5088v2.5088h-2.5088Z" stroke-width="0.4444"></path>
    <path fill="#000000" d="M23.5264 5.964799999999999h2.5088v2.5088h-2.5088Z" stroke-width="0.4444"></path>
  </g>
  <g id="color">
    <path fill="#ffffff" stroke="#000000" stroke-linejoin="round" stroke-width="0.8889" d="M0.9472 0.9472h30.1056v30.1056H0.9472Z"></path>
    <path fill="#3f3f3f" stroke="#000000" stroke-linejoin="round" stroke-width="0.8889" d="M5.964799999999999 5.964799999999999h2.5088v2.5088h-2.5088Z"></path>
    <path fill="#3f3f3f" stroke="#000000" stroke-linejoin="round" stroke-width="0.8889" d="M5.964799999999999 23.5264h2.5088v2.5088h-2.5088Z"></path>
    <path fill="#3f3f3f" stroke="#000000" stroke-linejoin="round" stroke-width="0.8889" d="M23.5264 5.964799999999999h2.5088v2.5088h-2.5088Z"></path>
  </g>
  <g id="line">
    <path fill="#000000" d="M4.0832 18.508799999999997c0 0.4828 0.5226666666666666 0.7845777777777778 0.9408 0.5431555555555555 0.19404444444444444 -0.11204444444444443 0.3136 -0.31906666666666667 0.3136 -0.5431555555555555 0 -0.4828 -0.5226666666666666 -0.7845777777777778 -0.9408 -0.5431555555555555 -0.19404444444444444 0.11204444444444443 -0.3136 0.31906666666666667 -0.3136 0.5431555555555555" stroke-width="0.4444"></path>
    <path fill="#000000" d="M2.8287999999999998 17.2544c0 0.4828 0.5226666666666666 0.7845777777777778 0.9408 0.5431555555555555 0.19404444444444444 -0.11204444444444443 0.3136 -0.31906666666666667 0.3136 -0.5431555555555555 0 -0.4828 -0.5226666666666666 -0.7845777777777778 -0.9408 -0.5431555555555555 -0.19404444444444444 0.11204444444444443 -0.3136 0.31906666666666667 -0.3136 0.5431555555555555" stroke-width="0.4444"></path>
    <path fill="#000000" d="M5.3376 17.2544c0 0.4828 0.5226666666666666 0.7845777777777778 0.9408 0.5431555555555555 0.19404444444444444 -0.11204444444444443 0.3136 -0.31906666666666667 0.3136 -0.5431555555555555 0 -0.4828 -0.5226666666666666 -0.7845777777777778 -0.9408 -0.5431555555555555 -0.19404444444444444 0.11204444444444443 -0.3136 0.31906666666666667 -0.3136 0.5431555555555555" stroke-width="0.4444"></path>
    <path fill="#000000" d="M14.1184 22.272c0 0.4828 0.5226666666666666 0.7845777777777778 0.9408 0.5431555555555555 0.19404444444444444 -0.11204444444444443 0.3136 -0.31906666666666667 0.3136 -0.5431555555555555 0 -0.4828 -0.5226666666666666 -0.7845777777777778 -0.9408 -0.5431555555555555 -0.19404444444444444 0.11204444444444443 -0.3136 0.31906666666666667 -0.3136 0.5431555555555555" stroke-width="0.4444"></path>
    <path fill="#000000" d="M17.8816 17.2544c0 0.4828 0.5226666666666666 0.7845777777777778 0.9408 0.5431555555555555 0.19404444444444444 -0.11204444444444443 0.3136 -0.31906666666666667 0.3136 -0.5431555555555555 0 -0.4828 -0.5226666666666666 -0.7845777777777778 -0.9408 -0.5431555555555555 -0.19404444444444444 0.11204444444444443 -0.3136 0.31906666666666667 -0.3136 0.5431555555555555" stroke-width="0.4444"></path>
    <path fill="#000000" d="M17.8816 10.9824c0 0.4828 0.5226666666666666 0.7845777777777778 0.9408 0.5431555555555555 0.19404444444444444 -0.11204444444444443 0.3136 -0.31906666666666667 0.3136 -0.5431555555555555 0 -0.4828 -0.5226666666666666 -0.7845777777777778 -0.9408 -0.5431555555555555 -0.19404444444444444 0.11204444444444443 -0.3136 0.31906666666666667 -0.3136 0.5431555555555555" stroke-width="0.4444"></path>
    <path fill="#000000" d="M12.863999999999999 3.4559999999999995c0 0.4828 0.5226666666666666 0.7845777777777778 0.9408 0.5431555555555555 0.19404444444444444 -0.11204444444444443 0.3136 -0.31906666666666667 0.3136 -0.5431555555555555 0 -0.4828 -0.5226666666666666 -0.7845777777777778 -0.9408 -0.5431555555555555 -0.19404444444444444 0.11204444444444443 -0.3136 0.31906666666666667 -0.3136 0.5431555555555555" stroke-width="0.4444"></path>
    <path fill="#000000" d="M21.6448 13.4912c0 0.4828 0.5226666666666666 0.7845777777777778 0.9408 0.5431555555555555 0.19404444444444444 -0.11204444444444443 0.3136 -0.31906666666666667 0.3136 -0.5431555555555555 0 -0.4828 -0.5226666666666666 -0.7845777777777778 -0.9408 -0.5431555555555555 -0.19404444444444444 0.11204444444444443 -0.3136 0.31906666666666667 -0.3136 0.5431555555555555" stroke-width="0.4444"></path>
    <path fill="#000000" d="M25.407999999999998 13.4912c0 0.4828 0.5226666666666666 0.7845777777777778 0.9408 0.5431555555555555 0.19404444444444444 -0.11204444444444443 0.3136 -0.31906666666666667 0.3136 -0.5431555555555555 0 -0.4828 -0.5226666666666666 -0.7845777777777778 -0.9408 -0.5431555555555555 -0.19404444444444444 0.11204444444444443 -0.3136 0.31906666666666667 -0.3136 0.5431555555555555" stroke-width="0.4444"></path>
    <path fill="#000000" d="M25.407999999999998 21.017599999999998c0 0.4828 0.5226666666666666 0.7845777777777778 0.9408 0.5431555555555555 0.19404444444444444 -0.11204444444444443 0.3136 -0.31906666666666667 0.3136 -0.5431555555555555 0 -0.4828 -0.5226666666666666 -0.7845777777777778 -0.9408 -0.5431555555555555 -0.19404444444444444 0.11204444444444443 -0.3136 0.31906666666666667 -0.3136 0.5431555555555555" stroke-width="0.4444"></path>
    <path fill="#000000" d="M26.662399999999998 23.5264c0 0.4828 0.5226666666666666 0.7845777777777778 0.9408 0.5431555555555555 0.19404444444444444 -0.11204444444444443 0.3136 -0.31906666666666667 0.3136 -0.5431555555555555 0 -0.4828 -0.5226666666666666 -0.7845777777777778 -0.9408 -0.5431555555555555 -0.19404444444444444 0.11204444444444443 -0.3136 0.31906666666666667 -0.3136 0.5431555555555555" stroke-width="0.4444"></path>
    <path fill="#000000" d="M27.9168 28.544c0 0.4828 0.5226666666666666 0.7845777777777778 0.9408 0.5431555555555555 0.19404444444444444 -0.11204444444444443 0.3136 -0.31906666666666667 0.3136 -0.5431555555555555 0 -0.4828 -0.5226666666666666 -0.7845777777777778 -0.9408 -0.5431555555555555 -0.19404444444444444 0.11204444444444443 -0.3136 0.31906666666666667 -0.3136 0.5431555555555555" stroke-width="0.4444"></path>
    <path fill="#000000" d="M12.863999999999999 28.544c0 0.4828 0.5226666666666666 0.7845777777777778 0.9408 0.5431555555555555 0.19404444444444444 -0.11204444444444443 0.3136 -0.31906666666666667 0.3136 -0.5431555555555555 0 -0.4828 -0.5226666666666666 -0.7845777777777778 -0.9408 -0.5431555555555555 -0.19404444444444444 0.11204444444444443 -0.3136 0.31906666666666667 -0.3136 0.5431555555555555" stroke-width="0.4444"></path>
    <path fill="#000000" d="M20.3904 28.544c0 0.4828 0.5226666666666666 0.7845777777777778 0.9408 0.5431555555555555 0.19404444444444444 -0.11204444444444443 0.3136 -0.31906666666666667 0.3136 -0.5431555555555555 0 -0.4828 -0.5226666666666666 -0.7845777777777778 -0.9408 -0.5431555555555555 -0.19404444444444444 0.11204444444444443 -0.3136 0.31906666666666667 -0.3136 0.5431555555555555" stroke-width="0.4444"></path>
    <path fill="#000000" d="M21.6448 27.2896c0 0.4828 0.5226666666666666 0.7845777777777778 0.9408 0.5431555555555555 0.19404444444444444 -0.11204444444444443 0.3136 -0.31906666666666667 0.3136 -0.5431555555555555 0 -0.4828 -0.5226666666666666 -0.7845777777777778 -0.9408 -0.5431555555555555 -0.19404444444444444 0.11204444444444443 -0.3136 0.31906666666666667 -0.3136 0.5431555555555555" stroke-width="0.4444"></path>
    <path fill="#000000" d="M20.3904 26.0352c0 0.4828 0.5226666666666666 0.7845777777777778 0.9408 0.5431555555555555 0.19404444444444444 -0.11204444444444443 0.3136 -0.31906666666666667 0.3136 -0.5431555555555555 0 -0.4828 -0.5226666666666666 -0.7845777777777778 -0.9408 -0.5431555555555555 -0.19404444444444444 0.11204444444444443 -0.3136 0.31906666666666667 -0.3136 0.5431555555555555" stroke-width="0.4444"></path>
    <path fill="#000000" d="M2.8287999999999998 13.4912c0 0.4828 0.5226666666666666 0.7845777777777778 0.9408 0.5431555555555555 0.19404444444444444 -0.11204444444444443 0.3136 -0.31906666666666667 0.3136 -0.5431555555555555 0 -0.4828 -0.5226666666666666 -0.7845777777777778 -0.9408 -0.5431555555555555 -0.19404444444444444 0.11204444444444443 -0.3136 0.31906666666666667 -0.3136 0.5431555555555555" stroke-width="0.4444"></path>
    <path fill="#000000" d="M17.8816 27.2896c0 0.4828 0.5226666666666666 0.7845777777777778 0.9408 0.5431555555555555 0.19404444444444444 -0.11204444444444443 0.3136 -0.31906666666666667 0.3136 -0.5431555555555555 0 -0.4828 -0.5226666666666666 -0.7845777777777778 -0.9408 -0.5431555555555555 -0.19404444444444444 0.11204444444444443 -0.3136 0.31906666666666667 -0.3136 0.5431555555555555" stroke-width="0.4444"></path>
    <path fill="none" stroke="#000000" stroke-linejoin="round" stroke-width="0.8889" d="M0.9472 0.9472h30.1056v30.1056H0.9472Z"></path>
    <path fill="none" stroke="#000000" stroke-linejoin="round" stroke-width="0.8889" d="M3.4559999999999995 3.4559999999999995h7.5264v7.5264H3.4559999999999995Z"></path>
    <path fill="none" stroke="#000000" stroke-linejoin="round" stroke-width="0.8889" d="M5.964799999999999 5.964799999999999h2.5088v2.5088h-2.5088Z"></path>
    <path fill="none" stroke="#000000" stroke-linejoin="round" stroke-width="0.8889" d="M3.4559999999999995 21.017599999999998h7.5264V28.544H3.4559999999999995Z"></path>
    <path fill="none" stroke="#000000" stroke-linejoin="round" stroke-width="0.8889" d="M5.964799999999999 23.5264h2.5088v2.5088h-2.5088Z"></path>
    <path fill="none" stroke="#000000" stroke-linejoin="round" stroke-width="0.8889" d="M21.017599999999998 3.4559999999999995H28.544v7.5264H21.017599999999998Z"></path>
    <path fill="none" stroke="#000000" stroke-linejoin="round" stroke-width="0.8889" d="M23.5264 5.964799999999999h2.5088v2.5088h-2.5088Z"></path>
    <path fill="none" stroke="#000000" stroke-linecap="round" stroke-linejoin="round" stroke-width="0.8889" d="M4.7104 16v-1.2544H9.728"></path>
    <path fill="none" stroke="#000000" stroke-linecap="round" stroke-linejoin="round" stroke-width="0.8889" d="M5.964799999999999 14.745599999999998v-1.2544"></path>
    <path fill="none" stroke="#000000" stroke-linecap="round" stroke-linejoin="round" stroke-width="0.8889" d="M8.4736 14.745599999999998v3.7632"></path>
    <path fill="none" stroke="#000000" stroke-linecap="round" stroke-linejoin="round" stroke-width="0.8889" d="M8.4736 17.2544h1.2544"></path>
    <path fill="none" stroke="#000000" stroke-linecap="round" stroke-linejoin="round" stroke-width="0.8889" d="M17.2544 13.4912v-1.2544"></path>
    <path fill="none" stroke="#000000" stroke-linecap="round" stroke-linejoin="round" stroke-width="0.8889" d="M28.544 14.745599999999998h-1.2544"></path>
    <path fill="none" stroke="#000000" stroke-linecap="round" stroke-linejoin="round" stroke-width="0.8889" d="M19.763199999999998 19.763199999999998h1.2544v-1.2544"></path>
    <path fill="none" stroke="#000000" stroke-linecap="round" stroke-linejoin="round" stroke-width="0.8889" d="M10.9824 13.4912h1.2544"></path>
    <path fill="none" stroke="#000000" stroke-linecap="round" stroke-linejoin="round" stroke-width="0.8889" d="M14.745599999999998 13.4912h3.7632"></path>
    <path fill="none" stroke="#000000" stroke-linecap="round" stroke-linejoin="round" stroke-width="0.8889" d="M17.2544 3.4559999999999995v2.5088H16v5.0176"></path>
    <path fill="none" stroke="#000000" stroke-linecap="round" stroke-linejoin="round" stroke-width="0.8889" d="M16 9.728h-2.5088v1.2544"></path>
    <path fill="none" stroke="#000000" stroke-linecap="round" stroke-linejoin="round" stroke-width="0.8889" d="M16 5.964799999999999h-2.5088"></path>
    <path fill="none" stroke="#000000" stroke-linecap="round" stroke-linejoin="round" stroke-width="0.8889" d="M16 7.219200000000001h-1.2544v-2.5088"></path>
    <path fill="none" stroke="#000000" stroke-linecap="round" stroke-linejoin="round" stroke-width="0.8889" d="M10.9824 16H16"></path>
    <path fill="none" stroke="#000000" stroke-linecap="round" stroke-linejoin="round" stroke-width="0.8889" d="M12.2368 16v2.5088h-1.2544"></path>
    <path fill="none" stroke="#000000" stroke-linecap="round" stroke-linejoin="round" stroke-width="0.8889" d="M14.745599999999998 16v1.2544"></path>
    <path fill="none" stroke="#000000" stroke-linecap="round" stroke-linejoin="round" stroke-width="0.8889" d="M13.4912 21.017599999999998v-1.2544h3.7632v3.7632h2.5088V22.272h5.0176v6.271999999999999"></path>
    <path fill="none" stroke="#000000" stroke-linecap="round" stroke-linejoin="round" stroke-width="0.8889" d="M16 18.508799999999997v2.5088h3.7632m2.5088 -2.5088h-2.5088v5.0176h1.2544"></path>
    <path fill="none" stroke="#000000" stroke-linecap="round" stroke-linejoin="round" stroke-width="0.8889" d="M23.5264 14.745599999999998v2.5088h1.2544v2.5088h-1.2544v2.5088"></path>
    <path fill="none" stroke="#000000" stroke-linecap="round" stroke-linejoin="round" stroke-width="0.8889" d="M24.7808 17.2544V16h1.2544"></path>
    <path fill="none" stroke="#000000" stroke-linecap="round" stroke-linejoin="round" stroke-width="0.8889" d="M26.0352 24.7808h-2.5088v1.2544"></path>
    <path fill="none" stroke="#000000" stroke-linecap="round" stroke-linejoin="round" stroke-width="0.8889" d="M13.4912 26.0352h1.2544v1.2544H16v-2.5088"></path>
    <path fill="none" stroke="#000000" stroke-linecap="round" stroke-linejoin="round" stroke-width="0.8889" d="M28.544 13.4912v3.7632h-1.2544"></path>
    <path fill="none" stroke="#000000" stroke-linecap="round" stroke-linejoin="round" stroke-width="0.8889" d="M21.017599999999998 16v-1.2544"></path>
    <path fill="none" stroke="#000000" stroke-linecap="round" stroke-linejoin="round" stroke-width="0.8889" d="M28.544 19.763199999999998v1.2544"></path>
    <path fill="none" stroke="#000000" stroke-linecap="round" stroke-linejoin="round" stroke-width="0.8889" d="M27.2896 26.0352h1.2544"></path>
    <path fill="none" stroke="#000000" stroke-linecap="round" stroke-linejoin="round" stroke-width="0.8889" d="M18.508799999999997 7.219200000000001v1.2544"></path>
  </g>
</svg>